<?xml version="1.0" encoding="UTF-8" standalone="no"?>
<!DOCTYPE svg PUBLIC "-//W3C//DTD SVG 1.1//EN"
 "http://www.w3.org/Graphics/SVG/1.1/DTD/svg11.dtd">
<!-- Generated by graphviz version 2.38.0 (20140413.2041)
 -->
<!-- Title: BUILD Pages: 1 -->
<svg width="409pt" height="44pt"
 viewBox="0.00 0.00 409.00 44.00" xmlns="http://www.w3.org/2000/svg" xmlns:xlink="http://www.w3.org/1999/xlink">
<g id="graph0" class="graph" transform="scale(1 1) rotate(0) translate(4 40)">
<title>BUILD</title>
<polygon fill="white" stroke="none" points="-4,4 -4,-40 405,-40 405,4 -4,4"/>
<!-- page_html -->
<g id="node1" class="node"><title>page_html</title>
<polygon fill="none" stroke="black" points="74,-36 0,-36 0,-0 74,-0 74,-36"/>
<text text-anchor="middle" x="37" y="-14.3" font-family="Times New Roman,serif" font-size="14.00">page_html</text>
</g>
<!-- mod_js -->
<g id="node2" class="node"><title>mod_js</title>
<polygon fill="none" stroke="black" points="151.5,-36 92.5,-36 92.5,-0 151.5,-0 151.5,-36"/>
<text text-anchor="middle" x="122" y="-14.3" font-family="Times New Roman,serif" font-size="14.00">mod_js</text>
</g>
<!-- mod_xjs -->
<g id="node3" class="node"><title>mod_xjs</title>
<polygon fill="none" stroke="black" points="234.5,-36 169.5,-36 169.5,-0 234.5,-0 234.5,-36"/>
<text text-anchor="middle" x="202" y="-14.3" font-family="Times New Roman,serif" font-size="14.00">mod_xjs</text>
</g>
<!-- mod_ini -->
<g id="node4" class="node"><title>mod_ini</title>
<polygon fill="none" stroke="black" points="315,-36 253,-36 253,-0 315,-0 315,-36"/>
<text text-anchor="middle" x="284" y="-14.3" font-family="Times New Roman,serif" font-size="14.00">mod_ini</text>
</g>
<!-- mod_css -->
<g id="node5" class="node"><title>mod_css</title>
<polygon fill="none" stroke="black" points="401,-36 333,-36 333,-0 401,-0 401,-36"/>
<text text-anchor="middle" x="367" y="-14.3" font-family="Times New Roman,serif" font-size="14.00">mod_css</text>
</g>
</g>
</svg>
